<svg xmlns="http://www.w3.org/2000/svg" version="1.1" xmlns:xlink="http://www.w3.org/1999/xlink" xmlns:svgjs="http://svgjs.dev/svgjs" viewBox="0 0 18.701095598900444 3.1636000973296623"><g transform="matrix(1,0,0,1,2.5440346079046243,0.8916294452010275)"><rect width="18.701095598900444" height="3.1636000973296623" x="-2.5440346079046248" y="-0.8916294452010276" fill="#fffef5"></rect><g><path d=" M 1.093278 1.25673 L 0.791046 1.25673 L 0.388584 0.6491819999999999 L 0.388584 1.25673 L 0.086352 1.25673 L 0.086352 0.16961999999999988 L 0.388584 0.16961999999999988 L 0.791046 0.784878 L 0.791046 0.16961999999999988 L 1.093278 0.16961999999999988 L 1.093278 1.25673 Z M 2.1032164716796875 0.8851079999999999 L 1.5311344716796875 0.8851079999999999 Q 1.5357604716796875 0.9560399999999999 1.5704554716796877 0.9907349999999999 Q 1.6051504716796876 1.0254299999999998 1.6591204716796877 1.0254299999999998 Q 1.7346784716796875 1.0254299999999998 1.7670604716796876 0.9575819999999999 L 2.0893384716796874 0.9575819999999999 Q 2.0692924716796877 1.047018 2.011467471679688 1.117179 Q 1.9536424716796876 1.1873399999999998 1.8657484716796877 1.2274319999999999 Q 1.7778544716796876 1.2675239999999999 1.6714564716796876 1.2675239999999999 Q 1.5434704716796877 1.2675239999999999 1.4440114716796877 1.2135539999999998 Q 1.3445524716796875 1.159584 1.2882694716796876 1.059354 Q 1.2319864716796876 0.9591239999999999 1.2319864716796876 0.8234279999999999 Q 1.2319864716796876 0.6877319999999999 1.2874984716796876 0.5882729999999999 Q 1.3430104716796876 0.48881399999999997 1.4424694716796875 0.4348439999999999 Q 1.5419284716796877 0.38087399999999993 1.6714564716796876 0.38087399999999993 Q 1.7994424716796877 0.38087399999999993 1.8981304716796876 0.43330199999999996 Q 1.9968184716796875 0.4857299999999999 2.0523304716796877 0.5836469999999999 Q 2.1078424716796875 0.681564 2.1078424716796875 0.8141759999999999 Q 2.1078424716796875 0.8496419999999999 2.1032164716796875 0.8851079999999999 Z M 1.7994424716796877 0.7386179999999999 Q 1.7994424716796877 0.6831059999999999 1.7624344716796876 0.6514949999999999 Q 1.7254264716796877 0.6198839999999999 1.6699144716796877 0.6198839999999999 Q 1.6144024716796876 0.6198839999999999 1.5789364716796876 0.6499529999999999 Q 1.5434704716796877 0.6800219999999999 1.5326764716796877 0.7386179999999999 L 1.7994424716796877 0.7386179999999999 Z M 2.406168272460938 1.228203 Q 2.314419272460938 1.188882 2.261220272460938 1.120263 Q 2.208021272460938 1.051644 2.201853272460938 0.9652919999999999 L 2.494833272460938 0.9652919999999999 Q 2.501001272460938 1.006926 2.533383272460938 1.0300559999999999 Q 2.565765272460938 1.053186 2.613567272460938 1.053186 Q 2.650575272460938 1.053186 2.6721632724609377 1.037766 Q 2.693751272460938 1.022346 2.693751272460938 0.997674 Q 2.693751272460938 0.9652919999999999 2.658285272460938 0.9498719999999998 Q 2.622819272460938 0.9344519999999998 2.541093272460938 0.915948 Q 2.448573272460938 0.8974439999999999 2.386893272460938 0.8743139999999999 Q 2.325213272460938 0.8511839999999999 2.279724272460938 0.7987559999999999 Q 2.234235272460938 0.7463279999999999 2.234235272460938 0.6568919999999999 Q 2.234235272460938 0.5797919999999999 2.275869272460938 0.5173409999999999 Q 2.317503272460938 0.4548899999999999 2.398458272460938 0.41788199999999986 Q 2.479413272460938 0.38087399999999993 2.5935212724609378 0.38087399999999993 Q 2.763141272460938 0.38087399999999993 2.860287272460938 0.46414199999999994 Q 2.957433272460938 0.54741 2.972853272460938 0.6831059999999999 L 2.6999192724609378 0.6831059999999999 Q 2.692209272460938 0.6414719999999999 2.663682272460938 0.6191129999999999 Q 2.635155272460938 0.5967539999999999 2.587353272460938 0.5967539999999999 Q 2.550345272460938 0.5967539999999999 2.531070272460938 0.610632 Q 2.511795272460938 0.6245099999999999 2.511795272460938 0.6491819999999999 Q 2.511795272460938 0.6800219999999999 2.547261272460938 0.6962129999999999 Q 2.582727272460938 0.7124039999999999 2.661369272460938 0.729366 Q 2.755431272460938 0.749412 2.817882272460938 0.774084 Q 2.880333272460938 0.7987559999999999 2.927364272460938 0.853497 Q 2.9743952724609377 0.9082379999999999 2.9743952724609377 1.0023 Q 2.9743952724609377 1.077858 2.930448272460938 1.137996 Q 2.886501272460938 1.1981339999999998 2.805546272460938 1.232829 Q 2.724591272460938 1.2675239999999999 2.6151092724609377 1.2675239999999999 Q 2.497917272460938 1.2675239999999999 2.406168272460938 1.228203 Z M 3.6482387314453133 0.9992159999999999 L 3.6482387314453133 1.25673 L 3.517168731445313 1.25673 Q 3.185638731445313 1.25673 3.185638731445313 0.9282839999999999 L 3.185638731445313 0.6430139999999999 L 3.079240731445313 0.6430139999999999 L 3.079240731445313 0.3916679999999999 L 3.185638731445313 0.3916679999999999 L 3.185638731445313 0.181956 L 3.489412731445313 0.181956 L 3.489412731445313 0.3916679999999999 L 3.646696731445313 0.3916679999999999 L 3.646696731445313 0.6430139999999999 L 3.489412731445313 0.6430139999999999 L 3.489412731445313 0.9329099999999999 Q 3.489412731445313 0.9683759999999999 3.505603731445313 0.9837959999999999 Q 3.521794731445313 0.9992159999999999 3.560344731445313 0.9992159999999999 L 3.6482387314453133 0.9992159999999999 Z M 4.414517862304688 0.4117139999999999 L 4.414517862304688 0.5890439999999999 L 4.761467862304689 0.5890439999999999 L 4.761467862304689 0.8188019999999999 L 4.414517862304688 0.8188019999999999 L 4.414517862304688 1.0146359999999999 L 4.807727862304688 1.0146359999999999 L 4.807727862304688 1.25673 L 4.112285862304688 1.25673 L 4.112285862304688 0.16961999999999988 L 4.807727862304688 0.16961999999999988 L 4.807727862304688 0.4117139999999999 L 4.414517862304688 0.4117139999999999 Z M 5.445304204101563 0.41633999999999993 Q 5.510839204101563 0.45180599999999993 5.5463052041015635 0.511944 L 5.5463052041015635 0.3916679999999999 L 5.848537204101563 0.3916679999999999 L 5.848537204101563 1.2474779999999999 Q 5.848537204101563 1.3692959999999998 5.802277204101563 1.4672129999999999 Q 5.756017204101563 1.56513 5.658100204101563 1.623726 Q 5.560183204101563 1.6823219999999999 5.410609204101563 1.6823219999999999 Q 5.210149204101564 1.6823219999999999 5.089873204101563 1.58826 Q 4.9695972041015635 1.494198 4.952635204101563 1.332288 L 5.250241204101563 1.332288 Q 5.259493204101563 1.3739219999999999 5.296501204101563 1.397052 Q 5.3335092041015635 1.4201819999999998 5.392105204101563 1.4201819999999998 Q 5.5463052041015635 1.4201819999999998 5.5463052041015635 1.2474779999999999 L 5.5463052041015635 1.1364539999999999 Q 5.510839204101563 1.1965919999999999 5.445304204101563 1.2320579999999999 Q 5.379769204101563 1.2675239999999999 5.291875204101563 1.2675239999999999 Q 5.188561204101563 1.2675239999999999 5.104522204101563 1.2135539999999998 Q 5.020483204101563 1.159584 4.9719102041015635 1.0585829999999998 Q 4.923337204101563 0.9575819999999999 4.923337204101563 0.8234279999999999 Q 4.923337204101563 0.6892739999999999 4.9719102041015635 0.5890439999999999 Q 5.020483204101563 0.48881399999999997 5.104522204101563 0.4348439999999999 Q 5.188561204101563 0.38087399999999993 5.291875204101563 0.38087399999999993 Q 5.379769204101563 0.38087399999999993 5.445304204101563 0.41633999999999993 Z M 5.500816204101563 0.6923579999999999 Q 5.455327204101563 0.6445559999999999 5.389021204101563 0.6445559999999999 Q 5.321173204101563 0.6445559999999999 5.276455204101563 0.691587 Q 5.231737204101563 0.7386179999999999 5.231737204101563 0.8234279999999999 Q 5.231737204101563 0.906696 5.276455204101563 0.9552689999999999 Q 5.321173204101563 1.003842 5.389021204101563 1.003842 Q 5.455327204101563 1.003842 5.500816204101563 0.9560399999999999 Q 5.5463052041015635 0.9082379999999999 5.5463052041015635 0.8234279999999999 Q 5.5463052041015635 0.7401599999999999 5.500816204101563 0.6923579999999999 Z M 6.509272910156251 0.41633999999999993 Q 6.574807910156251 0.45180599999999993 6.610273910156251 0.511944 L 6.610273910156251 0.3916679999999999 L 6.91250591015625 0.3916679999999999 L 6.91250591015625 1.2474779999999999 Q 6.91250591015625 1.3692959999999998 6.866245910156251 1.4672129999999999 Q 6.819985910156251 1.56513 6.722068910156251 1.623726 Q 6.62415191015625 1.6823219999999999 6.474577910156251 1.6823219999999999 Q 6.274117910156251 1.6823219999999999 6.153841910156251 1.58826 Q 6.033565910156251 1.494198 6.016603910156251 1.332288 L 6.314209910156251 1.332288 Q 6.323461910156251 1.3739219999999999 6.360469910156251 1.397052 Q 6.397477910156251 1.4201819999999998 6.456073910156251 1.4201819999999998 Q 6.610273910156251 1.4201819999999998 6.610273910156251 1.2474779999999999 L 6.610273910156251 1.1364539999999999 Q 6.574807910156251 1.1965919999999999 6.509272910156251 1.2320579999999999 Q 6.44373791015625 1.2675239999999999 6.355843910156251 1.2675239999999999 Q 6.252529910156251 1.2675239999999999 6.168490910156251 1.2135539999999998 Q 6.08445191015625 1.159584 6.035878910156251 1.0585829999999998 Q 5.987305910156251 0.9575819999999999 5.987305910156251 0.8234279999999999 Q 5.987305910156251 0.6892739999999999 6.035878910156251 0.5890439999999999 Q 6.08445191015625 0.48881399999999997 6.168490910156251 0.4348439999999999 Q 6.252529910156251 0.38087399999999993 6.355843910156251 0.38087399999999993 Q 6.44373791015625 0.38087399999999993 6.509272910156251 0.41633999999999993 Z M 6.56478491015625 0.6923579999999999 Q 6.51929591015625 0.6445559999999999 6.4529899101562505 0.6445559999999999 Q 6.385141910156251 0.6445559999999999 6.34042391015625 0.691587 Q 6.295705910156251 0.7386179999999999 6.295705910156251 0.8234279999999999 Q 6.295705910156251 0.906696 6.34042391015625 0.9552689999999999 Q 6.385141910156251 1.003842 6.4529899101562505 1.003842 Q 6.51929591015625 1.003842 6.56478491015625 0.9560399999999999 Q 6.610273910156251 0.9082379999999999 6.610273910156251 0.8234279999999999 Q 6.610273910156251 0.7401599999999999 6.56478491015625 0.6923579999999999 Z M 8.417454240234376 1.25673 L 8.115222240234376 1.25673 L 7.712760240234376 0.6491819999999999 L 7.712760240234376 1.25673 L 7.410528240234376 1.25673 L 7.410528240234376 0.16961999999999988 L 7.712760240234376 0.16961999999999988 L 8.115222240234376 0.784878 L 8.115222240234376 0.16961999999999988 L 8.417454240234376 0.16961999999999988 L 8.417454240234376 1.25673 Z M 8.604735711914064 0.5890439999999999 Q 8.653308711914065 0.48881399999999997 8.737347711914063 0.4348439999999999 Q 8.821386711914064 0.38087399999999993 8.924700711914063 0.38087399999999993 Q 9.014136711914064 0.38087399999999993 9.078900711914065 0.41633999999999993 Q 9.143664711914065 0.45180599999999993 9.179130711914064 0.511944 L 9.179130711914064 0.3916679999999999 L 9.481362711914064 0.3916679999999999 L 9.481362711914064 1.25673 L 9.179130711914064 1.25673 L 9.179130711914064 1.1364539999999999 Q 9.143664711914065 1.1965919999999999 9.078129711914064 1.2320579999999999 Q 9.012594711914064 1.2675239999999999 8.924700711914063 1.2675239999999999 Q 8.821386711914064 1.2675239999999999 8.737347711914063 1.2135539999999998 Q 8.653308711914065 1.159584 8.604735711914064 1.0585829999999998 Q 8.556162711914064 0.9575819999999999 8.556162711914064 0.8234279999999999 Q 8.556162711914064 0.6892739999999999 8.604735711914064 0.5890439999999999 Z M 9.133641711914064 0.6923579999999999 Q 9.088152711914065 0.6445559999999999 9.021846711914064 0.6445559999999999 Q 8.953998711914064 0.6445559999999999 8.909280711914064 0.691587 Q 8.864562711914065 0.7386179999999999 8.864562711914065 0.8234279999999999 Q 8.864562711914065 0.906696 8.909280711914064 0.9552689999999999 Q 8.953998711914064 1.003842 9.021846711914064 1.003842 Q 9.088152711914065 1.003842 9.133641711914064 0.9560399999999999 Q 9.179130711914064 0.9082379999999999 9.179130711914064 0.8234279999999999 Q 9.179130711914064 0.7401599999999999 9.133641711914064 0.6923579999999999 Z M 10.084273417968753 0.97146 L 10.246183417968751 0.3916679999999999 L 10.568461417968752 0.3916679999999999 L 10.270855417968752 1.25673 L 9.894607417968752 1.25673 L 9.597001417968752 0.3916679999999999 L 9.919279417968752 0.3916679999999999 L 10.084273417968753 0.97146 Z M 10.709534088867189 0.2675369999999999 Q 10.66096108886719 0.22358999999999996 10.66096108886719 0.15728399999999998 Q 10.66096108886719 0.08943599999999985 10.709534088867189 0.044718000000000035 Q 10.758107088867188 0 10.838291088867189 0 Q 10.91693308886719 0 10.965506088867189 0.044718000000000035 Q 11.014079088867188 0.08943599999999985 11.014079088867188 0.15728399999999998 Q 11.014079088867188 0.22358999999999996 10.965506088867189 0.2675369999999999 Q 10.91693308886719 0.31148399999999987 10.838291088867189 0.31148399999999987 Q 10.758107088867188 0.31148399999999987 10.709534088867189 0.2675369999999999 Z M 10.987865088867188 0.3916679999999999 L 10.987865088867188 1.25673 L 10.685633088867188 1.25673 L 10.685633088867188 0.3916679999999999 L 10.987865088867188 0.3916679999999999 Z M 11.648586489257815 0.41633999999999993 Q 11.714121489257815 0.45180599999999993 11.749587489257815 0.511944 L 11.749587489257815 0.3916679999999999 L 12.051819489257815 0.3916679999999999 L 12.051819489257815 1.2474779999999999 Q 12.051819489257815 1.3692959999999998 12.005559489257815 1.4672129999999999 Q 11.959299489257814 1.56513 11.861382489257814 1.623726 Q 11.763465489257815 1.6823219999999999 11.613891489257814 1.6823219999999999 Q 11.413431489257814 1.6823219999999999 11.293155489257815 1.58826 Q 11.172879489257815 1.494198 11.155917489257815 1.332288 L 11.453523489257815 1.332288 Q 11.462775489257814 1.3739219999999999 11.499783489257814 1.397052 Q 11.536791489257814 1.4201819999999998 11.595387489257813 1.4201819999999998 Q 11.749587489257815 1.4201819999999998 11.749587489257815 1.2474779999999999 L 11.749587489257815 1.1364539999999999 Q 11.714121489257815 1.1965919999999999 11.648586489257815 1.2320579999999999 Q 11.583051489257814 1.2675239999999999 11.495157489257814 1.2675239999999999 Q 11.391843489257814 1.2675239999999999 11.307804489257814 1.2135539999999998 Q 11.223765489257815 1.159584 11.175192489257814 1.0585829999999998 Q 11.126619489257815 0.9575819999999999 11.126619489257815 0.8234279999999999 Q 11.126619489257815 0.6892739999999999 11.175192489257814 0.5890439999999999 Q 11.223765489257815 0.48881399999999997 11.307804489257814 0.4348439999999999 Q 11.391843489257814 0.38087399999999993 11.495157489257814 0.38087399999999993 Q 11.583051489257814 0.38087399999999993 11.648586489257815 0.41633999999999993 Z M 11.704098489257815 0.6923579999999999 Q 11.658609489257815 0.6445559999999999 11.592303489257814 0.6445559999999999 Q 11.524455489257814 0.6445559999999999 11.479737489257815 0.691587 Q 11.435019489257815 0.7386179999999999 11.435019489257815 0.8234279999999999 Q 11.435019489257815 0.906696 11.479737489257815 0.9552689999999999 Q 11.524455489257814 1.003842 11.592303489257814 1.003842 Q 11.658609489257815 1.003842 11.704098489257815 0.9560399999999999 Q 11.749587489257815 0.9082379999999999 11.749587489257815 0.8234279999999999 Q 11.749587489257815 0.7401599999999999 11.704098489257815 0.6923579999999999 Z M 12.239161195312501 0.5890439999999999 Q 12.287734195312503 0.48881399999999997 12.371773195312501 0.4348439999999999 Q 12.455812195312502 0.38087399999999993 12.559126195312501 0.38087399999999993 Q 12.648562195312502 0.38087399999999993 12.713326195312503 0.41633999999999993 Q 12.778090195312503 0.45180599999999993 12.813556195312502 0.511944 L 12.813556195312502 0.3916679999999999 L 13.115788195312502 0.3916679999999999 L 13.115788195312502 1.25673 L 12.813556195312502 1.25673 L 12.813556195312502 1.1364539999999999 Q 12.778090195312503 1.1965919999999999 12.712555195312502 1.2320579999999999 Q 12.647020195312502 1.2675239999999999 12.559126195312501 1.2675239999999999 Q 12.455812195312502 1.2675239999999999 12.371773195312501 1.2135539999999998 Q 12.287734195312503 1.159584 12.239161195312501 1.0585829999999998 Q 12.190588195312502 0.9575819999999999 12.190588195312502 0.8234279999999999 Q 12.190588195312502 0.6892739999999999 12.239161195312501 0.5890439999999999 Z M 12.768067195312502 0.6923579999999999 Q 12.722578195312503 0.6445559999999999 12.656272195312502 0.6445559999999999 Q 12.588424195312502 0.6445559999999999 12.543706195312502 0.691587 Q 12.498988195312503 0.7386179999999999 12.498988195312503 0.8234279999999999 Q 12.498988195312503 0.906696 12.543706195312502 0.9552689999999999 Q 12.588424195312502 1.003842 12.656272195312502 1.003842 Q 12.722578195312503 1.003842 12.768067195312502 0.9560399999999999 Q 12.813556195312502 0.9082379999999999 12.813556195312502 0.8234279999999999 Q 12.813556195312502 0.7401599999999999 12.768067195312502 0.6923579999999999 Z M 13.81430290136719 0.9992159999999999 L 13.81430290136719 1.25673 L 13.68323290136719 1.25673 Q 13.35170290136719 1.25673 13.35170290136719 0.9282839999999999 L 13.35170290136719 0.6430139999999999 L 13.24530490136719 0.6430139999999999 L 13.24530490136719 0.3916679999999999 L 13.35170290136719 0.3916679999999999 L 13.35170290136719 0.181956 L 13.655476901367189 0.181956 L 13.655476901367189 0.3916679999999999 L 13.81276090136719 0.3916679999999999 L 13.81276090136719 0.6430139999999999 L 13.655476901367189 0.6430139999999999 L 13.655476901367189 0.9329099999999999 Q 13.655476901367189 0.9683759999999999 13.67166790136719 0.9837959999999999 Q 13.68785890136719 0.9992159999999999 13.72640890136719 0.9992159999999999 L 13.81430290136719 0.9992159999999999 Z M 14.138831408203128 1.2135539999999998 Q 14.036288408203127 1.159584 13.977692408203128 1.059354 Q 13.919096408203128 0.9591239999999999 13.919096408203128 0.8234279999999999 Q 13.919096408203128 0.6892739999999999 13.978463408203128 0.5890439999999999 Q 14.037830408203128 0.48881399999999997 14.140373408203128 0.4348439999999999 Q 14.242916408203127 0.38087399999999993 14.372444408203128 0.38087399999999993 Q 14.501972408203128 0.38087399999999993 14.604515408203127 0.4348439999999999 Q 14.707058408203128 0.48881399999999997 14.766425408203128 0.5890439999999999 Q 14.825792408203128 0.6892739999999999 14.825792408203128 0.8234279999999999 Q 14.825792408203128 0.9575819999999999 14.766425408203128 1.0585829999999998 Q 14.707058408203128 1.159584 14.603744408203127 1.2135539999999998 Q 14.500430408203128 1.2675239999999999 14.370902408203127 1.2675239999999999 Q 14.241374408203129 1.2675239999999999 14.138831408203128 1.2135539999999998 Z M 14.476529408203128 0.9583529999999999 Q 14.518934408203128 0.911322 14.518934408203128 0.8234279999999999 Q 14.518934408203128 0.7355339999999999 14.476529408203128 0.6892739999999999 Q 14.434124408203127 0.6430139999999999 14.372444408203128 0.6430139999999999 Q 14.310764408203127 0.6430139999999999 14.269130408203127 0.6892739999999999 Q 14.227496408203129 0.7355339999999999 14.227496408203129 0.8234279999999999 Q 14.227496408203129 0.9128639999999999 14.267588408203128 0.9591239999999999 Q 14.307680408203128 1.0053839999999998 14.370902408203127 1.0053839999999998 Q 14.434124408203127 1.0053839999999998 14.476529408203128 0.9583529999999999 Z M 15.390143326171877 0.4271339999999999 Q 15.462617326171877 0.3839579999999999 15.545885326171877 0.3839579999999999 L 15.545885326171877 0.7062359999999999 L 15.461075326171878 0.7062359999999999 Q 15.362387326171877 0.7062359999999999 15.314585326171878 0.744786 Q 15.266783326171877 0.7833359999999999 15.266783326171877 0.8789399999999998 L 15.266783326171877 1.25673 L 14.964551326171877 1.25673 L 14.964551326171877 0.3916679999999999 L 15.266783326171877 0.3916679999999999 L 15.266783326171877 0.5443259999999999 Q 15.317669326171877 0.4703099999999999 15.390143326171877 0.4271339999999999 Z" fill="#8321bf" fill-rule="nonzero"></path></g><g></g><g clip-path="url(&quot;#SvgjsClipPath1019&quot;)"><g clip-path="url(&quot;#SvgjsClipPath1008&quot;)"><path d=" M -0.4797653634793966 0.4193393081690776 L -0.6365474671595646 0.34439588294140633 C -0.6430917332320942 0.34126890187842884 -0.6480968958876141 0.3356329320944893 -0.6504288045508941 0.32876506262991745 L -0.6505275338353276 0.32847677311937207 C -0.6807141645687504 0.23824654688927205 -0.7204745956675891 0.151507588316033 -0.7691290486394275 0.06974286116194561 C -0.8323592315619266 -0.035265605761372665 -0.9045263893113316 -0.11853783342384178 -0.9836243428279586 -0.1777714549124776 C -1.069187089889282 -0.2418467605097251 -1.1586950591565617 -0.27433659343105365 -1.2496602726620778 -0.27433659343105365 C -1.340625486167594 -0.27433659343105365 -1.4301374046062512 -0.2418467605097251 -1.5156962024961969 -0.17777145491247756 C -1.5948060035269558 -0.11853388425246442 -1.6669731612763612 -0.035257707418617945 -1.7301993950274819 0.069742861161944 C -1.8532674226593477 0.2741243274531213 -1.926741756134651 0.5408395147641418 -1.926741756134651 0.783208060533897 C -1.926741756134651 1.0181205707432452 -1.8581920393668836 1.2120485803986187 -1.7284933529924735 1.3440338370005054 C -1.6082371353812694 1.4663989121272056 -1.442660227043778 1.5310784409451856 -1.249652374319323 1.5310784409451856 C -1.056644521594868 1.5310784409451856 -0.8910715624287542 1.4663870646130737 -0.7708192939889276 1.3440338370005054 C -0.6411324551286497 1.2120643770841282 -0.5725708908467504 1.0181363674287547 -0.5725708908467504 0.783219908048029 C -0.5727268136985835 0.7210877230369189 -0.5772505516196753 0.6590433641985296 -0.5861086503282564 0.5975456665712535 L -0.586108650328252 0.5975456665712535 C -0.5875547570362116 0.5892351277689089 -0.5850214074669415 0.5807272832835353 -0.5792647363313319 0.5745614891551988 L -0.578747394880901 0.5740086051623722 L -0.47191835995263354 0.46224705518381404 C -0.4659474001445574 0.45600841055187824 -0.4633316153769371 0.4472840887599977 -0.4648851298974801 0.43878940568717495 C -0.4664386444180231 0.430294722614352 -0.4719728709450919 0.42306088148906573 -0.4797653634793966 0.4193393081690776 Z" fill="#ffe4c0" transform="matrix(1,0,0,1,0,0)" fill-rule="nonzero"></path></g><g clip-path="url(&quot;#SvgjsClipPath1008&quot;)"><path d=" M -1.46988581451912 0.8101058667849205 L -1.46988581451912 0.904810945584772 C -1.4701619250216251 0.9434259990031627 -1.450664096966282 0.9794983218840932 -1.418206957875325 1.0004203846300332 C -1.334800458386026 1.0530904832895396 -1.2414183519975812 1.0083187273847019 -1.2201915558444099 0.929070705355736 L -1.031211857924836 0.2236539172507901 C -1.0134110711618132 0.15726208067179792 -0.953240863484418 0.11110065186333046 -0.8845040904282473 0.11110253299676515 L -0.8727474072379235 0.11110253299676515 C -0.8279278745719523 0.11125365851239216 -0.7848570793477019 0.12851107562743164 -0.7523332227716262 0.15934955971365722 C -0.7492944789096767 0.16220458571390534 -0.7446428132433369 0.162460875372944 -0.7413088116648718 0.15995696419332517 C -0.7379748100864065 0.15745305301370643 -0.7369243199621922 0.15291431438280229 -0.7388191583183885 0.14920018927390832 C -0.8606945361942995 -0.08896248897898587 -1.044030868215663 -0.26169924502358416 -1.2490994903264965 -0.26169924502358416 C -1.5199020700130579 -0.26169924502358416 -1.7528439437051162 0.039484310068809314 -1.8563319796481592 0.3948149539158321 C -1.8577595555469641 0.3995770519081041 -1.8569422850101165 0.4047300100925961 -1.8541112739222836 0.40881668679321936 C -1.8512802628344505 0.4129033634938425 -1.8467432613387638 0.415479509182591 -1.84178323229406 0.4158166473004956 C -1.6329667429942214 0.4280310311264769 -1.4698844449118542 0.6009324521886047 -1.46988581451912 0.8101058667849205 Z" fill="#66eaa3" transform="matrix(1,0,0,1,0,0)" fill-rule="nonzero"></path></g><g clip-path="url(&quot;#SvgjsClipPath1008&quot;)"><path d=" M -0.8428245357118622 0.25215113790963384 C -0.8891996551958978 0.23022138925129698 -0.9344453116660161 0.2754867915783016 -0.9125353088645656 0.3218619110623374 C -0.9081863881148844 0.3310267860799051 -0.9008051181246579 0.3384080560701316 -0.8916402431070902 0.34275697681981265 C -0.8452651236230548 0.3646867254781495 -0.7999957721246727 0.3194213231511448 -0.8219294699543869 0.27304225449573183 C -0.8262796668474492 0.26387923569823757 -0.8336606948123237 0.2564996027490436 -0.8428245357118624 0.25215113790963384 Z" fill="#390c14" transform="matrix(1,0,0,1,0,0)" fill-rule="nonzero"></path></g><g clip-path="url(&quot;#SvgjsClipPath1008&quot;)"><path d=" M -0.5587487910260807 0.5930988996004055 L -0.40003949171377307 0.42703624318350186 C -0.4000071230085065 0.427001523835725 -0.3999930887847998 0.4269535374106105 -0.4000016485029185 0.426906848039053 C -0.4000102082210373 0.4268601586674957 -0.40004035257616466 0.42682027164850056 -0.4000829325989239 0.4267992929008618 L -0.6243405784322242 0.31959113752037016 C -0.6552000653260446 0.22750241644084124 -0.6957941715480174 0.13896799862150128 -0.745434020375424 0.05549030166114388 C -0.8105163646738911 -0.052590620593737786 -0.8850727711065836 -0.1385127422503982 -0.9670457213859098 -0.1998947129683038 C -1.0575093901265045 -0.2676230020895855 -1.1525935893785804 -0.3019807930723931 -1.2496602726620778 -0.3019807930723931 C -1.3467269559455755 -0.3019807930723931 -1.4418111551976511 -0.2676230020895855 -1.5322669255954913 -0.19989866213968113 C -1.6142398758748175 -0.13851669142177553 -1.6888041806502647 -0.05259456976511512 -1.753882575777355 0.055486352489767465 C -1.8794346322055644 0.26398680452750445 -1.9543859557759904 0.536033373197926 -1.9543859557759904 0.783208060533897 C -1.9543859557759904 1.025517368732992 -1.8830915649009758 1.2261471222157017 -1.748219464022258 1.363384776749443 C -1.6226358142230302 1.4911602166630913 -1.4502544836023916 1.5586989455582607 -1.2496602726620778 1.5586989455582607 C -1.049066061721764 1.5586989455582607 -0.8766689344156164 1.4911681150058458 -0.7511010813018979 1.363384776749443 C -0.616221082080425 1.2261352747015697 -0.5449345895481659 1.02550552121886 -0.5449345895481659 0.7831962130197648 C -0.5450836155982244 0.7196199184964561 -0.5497182870533504 0.6561333654318373 -0.5588040794253806 0.5932094763988517 C -0.5588034791922218 0.5931661142189404 -0.5587831206302203 0.5931253970949366 -0.5587487910260807 0.5930988996004055 Z M -1.6862372192549975 0.09622600441834728 C -1.5640577551830317 -0.1066429292353111 -1.4049377420474816 -0.22299736552570892 -1.2496602726620778 -0.22299736552570892 C -1.0995680652951139 -0.22299736552570892 -0.945897908660285 -0.11428062667907549 -0.8254758258512329 0.07618790884975346 C -0.8254448234778828 0.07623885072219677 -0.8254469256269517 0.07630331536194951 -0.8254811809685099 0.0763521292236703 C -0.8255154363100685 0.07640094308539097 -0.8255753439845288 0.0764248424441672 -0.8256337927063264 0.07641301161826147 C -0.8411334420157477 0.07297204333183721 -0.8569652051211714 0.07125033578314632 -0.8728421873509795 0.07127908882772693 C -0.9664462949931671 0.07139023323029514 -1.0483504391895968 0.13424761725361423 -1.0726702590440904 0.22463726092374625 L -1.258336602178081 0.9176378542183533 C -1.2674464810603638 0.9531183684593697 -1.2973255277138627 0.979420136580783 -1.333674944543486 0.9839562891579267 C -1.358479841230975 0.9867289457905238 -1.3832921130591767 0.9788102769716588 -1.4019050496555798 0.9621811123583185 C -1.420517986251983 0.945551947744978 -1.4311711665890252 0.9217850821997303 -1.4311997317067542 0.8968257210598022 L -1.4311997317067542 0.8106153098925962 C -1.4314807640008287 0.5917183513803052 -1.5941675899397567 0.4070295956758826 -1.8112798325755375 0.379132794376437 C -1.8113239411038697 0.37912886716954297 -1.8113638889324362 0.3791051488977706 -1.8113884527283484 0.3790683032039023 C -1.8114130165242606 0.379031457510034 -1.8114195457641404 0.37898546017913715 -1.8114062060596052 0.37894323415032594 C -1.7810219785428947 0.2800814870971986 -1.7390047628630663 0.18517786023797045 -1.6862372192549984 0.09622600441834944 Z M -1.2496602726620778 1.4797273655257088 C -1.5521628509945011 1.4797273655257088 -1.875402528229306 1.2967504080996828 -1.875402528229306 0.783208060533897 C -1.874739038490737 0.6729360048091422 -1.8605678378608335 0.5631605929104709 -1.8332056320624968 0.45633514563197086 C -1.833186467058333 0.45626106971225966 -1.8331158276090525 0.45621229485442316 -1.833039766864642 0.4562206196620018 C -1.6501924970888833 0.47353184004318516 -1.5104352931341223 0.6269505380626633 -1.510202905110325 0.8106153098925967 L -1.510202905110325 0.8938638425268016 C -1.510202905110325 0.9811879200224157 -1.4441530138244103 1.055894394967447 -1.3571132766679643 1.0629278691904793 C -1.2768839950850444 1.0694000476735632 -1.203468992822685 1.0176773515095392 -1.1825599017897925 0.9399506725002919 L -0.9969725420833484 0.24723836871623017 C -0.9824032251608649 0.19126387459641048 -0.9325239271262824 0.15170648678784054 -0.8747022470697041 0.150270414717166 C -0.8217241130427655 0.14953191966960455 -0.781079241227242 0.18035520226969798 -0.7543986394019719 0.2173194463615462 C -0.7450750060165838 0.23041137942927892 -0.7372998863269005 0.24453964788193128 -0.731228850931152 0.25942156241530623 C -0.6628252535043462 0.42419283979182154 -0.6239101187520948 0.6101079807225841 -0.6239101187520948 0.783208060533897 C -0.6239101187520952 1.2967504080996828 -0.9471537451582772 1.4797273655257088 -1.2496602726620778 1.4797273655257088 Z M -0.5759039914892201 0.49638369256949066 C -0.5811379599546469 0.47150917845412177 -0.5870024794499886 0.44674655752777703 -0.593497549975244 0.422095829790457 C -0.5935112688984903 0.4220404361836604 -0.5934923822485751 0.42198205522056953 -0.5934488179627677 0.4219451931325784 C -0.5934052536769603 0.4219083310445876 -0.5933445519023395 0.42189936795614835 -0.5932921930636224 0.42192206624985407 L -0.5324749538526758 0.45101561178667526 C -0.5324310047828837 0.4510352629581803 -0.5323995555694467 0.45107530123199846 -0.5323908741556767 0.45112265439801746 C -0.5323821927419061 0.4511700075640366 -0.5323973933041501 0.4512185982967296 -0.5324315129675252 0.4512525620693154 L -0.5756354478355612 0.4964547776542827 C -0.5756706746531042 0.49650884436837417 -0.5757371962171467 0.49653340160568993 -0.5757991042019106 0.49651519337487726 C -0.5758610121866745 0.49649698514406426 -0.5759036458254119 0.4964403234353425 -0.5759039914892206 0.49637579422673594 Z" fill="#390c14" transform="matrix(1,0,0,1,0,0)" fill-rule="nonzero"></path></g></g></g><defs><clipPath id="SvgjsClipPath1019"><path d=" M -1.9543859557759902 -0.3019807930723931 h 1.55438595577599 v 1.8606915861447861 h -1.55438595577599 Z"></path></clipPath><clipPath id="SvgjsClipPath1008"><path d=" M -1.9543859557759904 -0.3019807930723931 L -0.40000000000000013 -0.3019807930723931 L -0.40000000000000013 1.5587107930723931 L -1.9543859557759904 1.5587107930723931 Z"></path></clipPath></defs></svg>